# xmcd
#
# Track frame offsets: 
#        150
#        26520
#        44133
#        66250
#        85883
#        110843
#        132295
#        158800
#        184178
#        215493
#
# Disc length: 3127 seconds
#
# Revision: 0
# Processed by: cddbd v1.5.2PL0 Copyright (c) Steve Scherf et al.
# Submitted via: ExactAudioCopy v1.0b3
#
DISCID=930c350a
DTITLE=Various Artist - Mot Chut Qua Cho Que Huong
DYEAR=1994
DGENRE=
TTITLE0=Huong Lan - Neu toi con song ma tro ve
TTITLE1=Viet Dzung - Mot lan mien vien xot xa
TTITLE2=Mai Ngoc Khanh - Cho mot nguoi vua nam xuong
TTITLE3=Hang Nga - Tam su ke xa que
TTITLE4=Giao Linh - Bao gio gap lai anh
TTITLE5=Mai Ngoc Khanh - Mot chut qua cho que huong
TTITLE6=Tuan Vu - Nguoi di tan buon
TTITLE7=Ngoc Minh - Huyen su ca mot nguoi mang ten Quoc
TTITLE8=Giao Linh - Dem chon dau vuot bien
TTITLE9=Quoc Anh - Chien si vo danh
EXTD=
EXTT0=
EXTT1=
EXTT2=
EXTT3=
EXTT4=
EXTT5=
EXTT6=
EXTT7=
EXTT8=
EXTT9=
PLAYORDER=
